# xmcd
#
# Track frame offsets: 
#        150
#        32597
#        47390
#
# Disc length: 959 seconds
#
# Revision: 5
# Processed by: cddbd v1.5.2PL0 Copyright (c) Steve Scherf et al.
# Submitted via: ExactAudioCopy v1.3
#
DISCID=1703bd03
DTITLE=Mr.Children - しるし
DYEAR=2006
DGENRE=Pop
TTITLE0=しるし
TTITLE1=ひびき
TTITLE2=くるみ -for The Film- 幸福な食卓 
EXTD=YEAR: 2006
EXTT0=
EXTT1=
EXTT2=
PLAYORDER=
